<?xml version="1.0" encoding="utf-8"?>
<!-- Svg Vector Icons : http://www.onlinewebfonts.com/icon -->
<!DOCTYPE svg PUBLIC "-//W3C//DTD SVG 1.1//EN" "http://www.w3.org/Graphics/SVG/1.1/DTD/svg11.dtd">
<svg version="1.1" xmlns="http://www.w3.org/2000/svg" xmlns:xlink="http://www.w3.org/1999/xlink" x="0px" y="0px" viewBox="0 0 1000 1000" enable-background="new 0 0 1000 1000" xml:space="preserve">
<metadata> Svg Vector Icons : http://www.onlinewebfonts.com/icon </metadata>
<g><g transform="translate(0.000000,511.000000) scale(0.100000,-0.100000)"><path d="M3292.2,4922.1c-257-38.7-500.4-280.2-560.3-556.5c-38.6-185.5,67.6-448.3,243.5-591.3c208.7-172,442.5-202.9,670.5-90.8c332.3,162.3,481.1,537.2,336.2,838.6C3850.6,4794.6,3562.7,4962.7,3292.2,4922.1z M3524,4489.3c73.4-36.7,104.3-121.7,94.7-255.1c-13.5-146.8-69.6-199-220.3-199c-189.4,0-258.9,69.6-258.9,253.1c0,86.9,7.7,106.3,65.7,164.2c58,58,77.3,65.7,164.2,65.7C3425.5,4518.3,3495,4504.8,3524,4489.3z"/><path d="M1980.2,2922.3c-58-15.5-141-48.3-183.6-75.4c-106.3-61.8-245.4-214.5-313-340.1c-48.3-92.7-54.1-123.7-54.1-287.9s5.8-195.2,56-293.7c73.4-146.8,224.1-293.7,378.7-369c110.1-54.1,143-61.8,280.2-61.8c125.6,1.9,175.8,9.7,266.6,52.2c144.9,67.6,301.4,218.3,382.6,369.1c59.9,110.1,65.7,133.3,65.7,293.7c0,148.8-7.7,189.4-52.2,284c-96.6,206.7-293.7,374.9-508.2,430.9C2161.8,2959,2117.4,2959,1980.2,2922.3z M2308.7,2499.1c79.2-40.6,131.4-115.9,146.9-214.5c29-191.3-58-338.1-220.3-371c-100.5-21.3-220.3-5.8-289.8,36.7c-61.8,38.6-119.8,168.1-119.8,270.5c0,187.4,121.7,307.2,313,307.2C2202.4,2528.1,2277.7,2514.6,2308.7,2499.1z"/><path d="M4269.9,1716.5c-220.3-34.8-392.2-131.4-562.3-315c-338.1-365.2-336.2-861.8,3.9-1230.8C4011-151.9,4403.2-233.1,4772.3-51.4c529.4,260.8,709.1,869.5,394.2,1341C4963.5,1594.8,4598.4,1768.7,4269.9,1716.5z M4598.4,1277.9c191.3-63.8,318.8-258.9,318.8-488.8c0-330.4-228-539.1-568.1-517.8c-164.2,11.6-270.5,59.9-363.3,170c-81.1,94.7-112.1,189.4-112.1,347.8c0,65.7,9.7,154.6,23.2,195.2c38.6,135.3,175.8,262.8,324.6,309.2C4306.6,1318.5,4501.7,1310.8,4598.4,1277.9z"/><path d="M6354.8-291c-71.5-44.4-104.3-125.6-104.3-264.7v-104.3L3236.1-664l-3014.3-5.8l-59.9-59.9c-42.5-44.4-59.9-79.2-61.8-129.4c-3.9-146.9,94.7-226.1,282.1-226.1h104.3l11.6-293.7c17.4-417.4,90.8-724.6,264.7-1087.8c291.8-610.6,894.6-1153.5,1503.3-1352.6c54.1-17.4,100.5-40.6,100.5-52.2c0-9.7-52.2-146.8-115.9-301.4c-63.8-156.5-115.9-313-115.9-345.9c0-42.5,19.3-85,56-125.6c48.3-54.1,69.6-63.8,144.9-63.8c67.6,0,98.5,11.6,135.3,48.3c27,27.1,106.3,193.2,179.7,372.9l131.4,322.7l2249.1,1.9h2249.1l133.3-324.6c152.6-372.9,189.3-421.2,316.9-421.2c75.4,0,96.6,9.7,144.9,63.8c36.7,40.6,56,83.1,56,121.7c0,32.9-48.3,177.8-108.2,322.7c-59.9,144.9-115.9,284-123.7,305.3c-15.4,38.6-5.8,46.4,102.4,85c728.5,262.8,1329.4,875.3,1596,1628.9c88.9,251.2,139.1,529.4,150.7,830.9l11.6,264.7h90.8c108.2,0,212.5,61.8,239.6,141c27,75.4-7.7,185.5-71.5,233.8c-54.1,38.7-79.2,40.6-778.7,46.4l-722.7,5.8v133.3c0,121.7-5.8,141.1-56,197.1l-56,63.8l-896.6,5.8C6457.2-254.3,6412.7-256.3,6354.8-291z M7908.3-1079.4l5.8-411.6h-620.2h-618.3v415.4v415.4L7290-664l612.5-5.8L7908.3-1079.4z M6250.4-1813.6c0-657,3.9-738.1,34.8-798c17.4-36.7,54.1-77.3,81.2-90.8c36.7-19.3,264.7-25.1,933.3-25.1h886.9l65.7,65.7l65.7,65.7v755.5v755.5h415.4h415.4v-112.1c0-682.1-235.7-1304.3-657-1725.5c-305.3-305.3-684-502.4-1141.9-591.3c-170.1-32.9-330.4-34.8-2336.1-34.8H2859.3l-208.7,44.4c-550.7,115.9-979.6,382.6-1294.6,805.8c-284,382.6-429,813.5-452.1,1358.4l-11.6,255.1h2680h2678.1V-1813.6z M7902.5-2109.3v-202.9l-612.5-5.8l-614.5-3.9v212.5v212.5l614.5-3.9l612.5-5.8V-2109.3z"/></g></g>
</svg>